<svg id="_002-trash" data-name="002-trash" xmlns="http://www.w3.org/2000/svg" width="17.154" height="21.113" viewBox="0 0 17.154 21.113">
  <path id="Path_68" data-name="Path 68" d="M63.5,2.639H59.876v-.66A1.979,1.979,0,0,0,57.9,0H55.257a1.979,1.979,0,0,0-1.979,1.979v.66H49.649A1.649,1.649,0,0,0,48,4.289v1.32a.66.66,0,0,0,.66.66H64.494a.66.66,0,0,0,.66-.66V4.289A1.649,1.649,0,0,0,63.5,2.639ZM54.6,1.979a.661.661,0,0,1,.66-.66H57.9a.661.661,0,0,1,.66.66v.66H54.6Z" transform="translate(-48)" fill="#253c64"/>
  <path id="Path_69" data-name="Path 69" d="M73.57,184a.206.206,0,0,0-.206.216l.544,11.424a1.977,1.977,0,0,0,1.977,1.885H85.905a1.977,1.977,0,0,0,1.977-1.885l.544-11.424A.206.206,0,0,0,88.22,184Zm9.964,1.649a.66.66,0,1,1,1.32,0v8.577a.66.66,0,0,1-1.32,0Zm-3.3,0a.66.66,0,1,1,1.32,0v8.577a.66.66,0,0,1-1.32,0Zm-3.3,0a.66.66,0,1,1,1.32,0v8.577a.66.66,0,0,1-1.32,0Z" transform="translate(-72.318 -176.413)" fill="#253c64"/>
</svg>
